<svg  viewBox="0 0 20 20" fill="none" xmlns="http://www.w3.org/2000/svg">
<g clip-path="url(#clip0_43_279)">
<path d="M11.0407 0.319444L19.6741 6.18611C19.8778 6.32315 20 6.55278 20 6.79722V18.1083C20 19.1491 19.1704 19.9972 18.1481 19.9972H13.7C13.4963 19.9972 13.3296 19.8269 13.3296 19.6194V15.4639C13.3296 14.4231 12.5 13.3269 11.4778 13.3269H8.51481C7.49259 13.3269 6.66296 14.4194 6.66296 15.4639V19.6194C6.66296 19.8269 6.4963 19.9972 6.29259 19.9972H1.85185C0.82963 19.9972 0 19.1528 0 18.1083V6.79722C0 6.55278 0.122222 6.32315 0.325926 6.18611L8.95926 0.319444C9.58889 -0.106481 10.4111 -0.106481 11.0407 0.319444Z" fill="currentColor"/>
</g>
<defs>
<clipPath id="clip0_43_279">
<rect width="20" height="20" fill="white"/>
</clipPath>
</defs>
</svg>
