<svg width="381" height="386" viewBox="0 0 381 386" fill="none" xmlns="http://www.w3.org/2000/svg">
<path d="M281.44 227.25L359.815 272.067L281.065 317.533L281.44 227.25Z" fill="#C3F767"/>
<path d="M46.9734 182.46L90.8905 227.535L127.789 176.233L119.675 238.745L182.764 235.344L128.729 268.22L170.501 315.28L111.235 293.764L100.235 355.848L80.3661 296.142L24.8774 326.5L59.3675 273.564L1.17357 249.335L64.0513 243.031L46.9734 182.46Z" fill="#FFACD6"/>
<path d="M287.973 0L300.123 59.6194L347.753 21.7579L318.737 75.2386L379.561 76.8507L322.957 99.1685L368.514 139.5L310.807 120.212L319.781 180.391L287.973 128.523L256.166 180.391L265.14 120.212L207.433 139.5L252.99 99.1685L196.386 76.8507L257.21 75.2386L228.194 21.7579L275.824 59.6194L287.973 0Z" fill="#FF80B5"/>
<circle cx="93.9734" cy="107" r="30" fill="#C9E4FF"/>
<circle cx="248.973" cy="224" r="17" fill="#B5A9FF"/>
</svg>
